# xmcd CD database file
#
# Track frame offsets:
#	150
#	5742
#	22467
#	36350
#	42820
#	60662
#	77132
#	97155
#	107865
#	133777
#	149560
#	173142
#	196137
#	221205
#
# Disc length: 2986 seconds
#
# Revision: 1
# Processed by: cddbd v1.4PL0 Copyright (c) Steve Scherf et al.
# Submitted via: CDex 1.50
#
DISCID=d80ba80e
DTITLE=Rory Block - I'm Every Woman
DYEAR=2002
DGENRE=Blues
TTITLE0=Guitar Ditty
TTITLE1=I'm Every Woman
TTITLE2=Fool For You
TTITLE3=Sea Lion Woman
TTITLE4=Ain't No Grave Can Hold My Body Down
TTITLE5=Tired of Being Alone
TTITLE6=Love TKO
TTITLE7=Rock Island Line
TTITLE8=Talkin' 'Bout My Man
TTITLE9=Ain't Nothing Like the Real Thing
TTITLE10=Pretty Polly
TTITLE11=Hold On/Change Is Coming
TTITLE12=I Feel Like Breaking Up Somebody's Home
TTITLE13=Guitar Ditty
EXTD=YEAR: 2002
EXTT0=
EXTT1=
EXTT2=
EXTT3=
EXTT4=
EXTT5=
EXTT6=
EXTT7=
EXTT8=
EXTT9=
EXTT10=
EXTT11=
EXTT12=
EXTT13=
PLAYORDER=
